# xmcd CD database file
#
# Track frame offsets:
#	150
#	13672
#	29847
#	49247
#	62110
#	89222
#	106992
#	123945
#	132565
#	136565
#	149155
#	163730
#	174337
#
# Disc length: 2643 seconds
#
# Revision: 0
# Processed by: cddbd v1.5PL3 Copyright (c) Steve Scherf et al.
# Submitted via: CDex 1.51
#
DISCID=c40a510d
DTITLE=Doug Cox and friends - BoneBottleBrassOrSteel
DYEAR=1996
DGENRE=Blues
TTITLE0=fanfarinette - the bluegrass theme song to cbc's disc drive
TTITLE1=good morning blues
TTITLE2=wrapped around your finger
TTITLE3=dave macon rag - strawberry creek
TTITLE4=musta notta gotta lotta
TTITLE5=in the days of the pied pumkin
TTITLE6=while my guitar gently weeps
TTITLE7=red haired shake
TTITLE8=the layoff
TTITLE9=the circle game
TTITLE10=suicide creek
TTITLE11=riley's lullaby
TTITLE12=i like to slide
EXTD=YEAR: 1996
EXTT0=
EXTT1=
EXTT2=
EXTT3=
EXTT4=
EXTT5=
EXTT6=
EXTT7=
EXTT8=
EXTT9=
EXTT10=
EXTT11=
EXTT12=
PLAYORDER=
